MemphisRevival.ufo
<glyph name="numbersign" format="2">
  <advance width="500"/>
  <unicode hex="0023"/>
  <outline>
    <contour>
      <point x="462" y="303" type="line"/>
      <point x="350" y="303" type="line"/>
      <point x="374" y="478" type="line"/>
      <point x="497" y="478" type="line"/>
      <point x="493" y="529" type="line"/>
      <point x="380" y="529" type="line"/>
      <point x="416" y="781" type="line"/>
      <point x="361" y="781" type="line"/>
      <point x="325" y="529" type="line"/>
      <point x="170" y="529" type="line"/>
      <point x="205" y="781" type="line"/>
      <point x="149" y="781" type="line"/>
      <point x="114" y="529" type="line"/>
      <point x="-19" y="529" type="line"/>
      <point x="-15" y="478" type="line"/>
      <point x="107" y="478" type="line"/>
      <point x="83" y="303" type="line"/>
      <point x="-50" y="303" type="line"/>
      <point x="-45" y="252" type="line"/>
      <point x="76" y="252" type="line"/>
      <point x="41" y="0" type="line"/>
      <point x="96" y="0" type="line"/>
      <point x="131" y="252" type="line"/>
      <point x="288" y="252" type="line"/>
      <point x="252" y="0" type="line"/>
      <point x="307" y="0" type="line"/>
      <point x="343" y="252" type="line"/>
      <point x="466" y="252" type="line"/>
    </contour>
    <contour>
      <point x="319" y="478" type="line"/>
      <point x="295" y="303" type="line"/>
      <point x="139" y="303" type="line"/>
      <point x="163" y="478" type="line"/>
    </contour>
  </outline>
</glyph>
<glyph name="one" format="2">
  <advance width="348"/>
  <unicode hex="0031"/>
  <outline>
    <contour>
      <point x="307" y="0" type="line"/>
      <point x="307" y="50" type="line"/>
      <point x="216" y="50" type="line"/>
      <point x="216" y="750" type="line"/>
      <point x="155" y="750" type="line"/>
      <point x="67" y="718" type="line"/>
      <point x="67" y="670" type="line"/>
      <point x="155" y="689" type="line"/>
      <point x="155" y="50" type="line"/>
      <point x="64" y="50" type="line"/>
      <point x="64" y="0" type="line"/>
    </contour>
  </outline>
</glyph>
<glyph name="seven" format="2">
  <advance width="499"/>
  <unicode hex="0037"/>
  <outline>
    <contour>
      <point x="403" y="701" type="line"/>
      <point x="403" y="701" type="line"/>
      <point x="79" y="701" type="line"/>
      <point x="79" y="573" type="line"/>
      <point x="29" y="573" type="line"/>
      <point x="29" y="751" type="line"/>
      <point x="435" y="751" type="line"/>
      <point x="469" y="702" type="line"/>
      <point x="399" y="587"/>
      <point x="349" y="408" type="qcurve"/>
      <point x="305" y="242"/>
      <point x="294" y="1" type="qcurve"/>
      <point x="236" y="1" type="line"/>
      <point x="258" y="268"/>
      <point x="344" y="564"/>
      <point x="403" y="701" type="qcurve"/>
      <point x="403" y="701" type="line"/>
      <point x="403" y="701" type="line"/>
      <point x="403" y="701" type="line"/>
    </contour>
  </outline>
</glyph>
<glyph name="nine" format="2">
  <advance width="544"/>
  <unicode hex="0039"/>
  <outline>
    <contour>
      <point x="252" y="337" type="curve" smooth="yes"/>
      <point x="202" y="337"/>
      <point x="102" y="380"/>
      <point x="102" y="516" type="curve" smooth="yes"/>
      <point x="102" y="607"/>
      <point x="155" y="706"/>
      <point x="257" y="706" type="curve" smooth="yes"/>
      <point x="361" y="706"/>
      <point x="430" y="625"/>
      <point x="430" y="524" type="curve" smooth="yes"/>
      <point x="430" y="417"/>
      <point x="363" y="337"/>
    </contour>
    <contour>
      <point x="77" y="151" type="line"/>
      <point x="85" y="56"/>
      <point x="165" y="-5"/>
      <point x="264" y="-5" type="curve" smooth="yes"/>
      <point x="410" y="-5"/>
      <point x="487" y="132"/>
      <point x="487" y="288" type="curve" smooth="yes"/>
      <point x="487" y="510" type="line" smooth="yes"/>
      <point x="487" y="624"/>
      <point x="426" y="756"/>
      <point x="263" y="756" type="curve" smooth="yes"/>
      <point x="121" y="756"/>
      <point x="47" y="635"/>
      <point x="47" y="518" type="curve" smooth="yes"/>
      <point x="47" y="398"/>
      <point x="124" y="286"/>
      <point x="255" y="286" type="curve" smooth="yes"/>
      <point x="320" y="286"/>
      <point x="401" y="319"/>
      <point x="432" y="376" type="curve"/>
      <point x="433" y="376" type="line"/>
      <point x="433" y="319" type="line" smooth="yes"/>
      <point x="433" y="249"/>
      <point x="427" y="216"/>
      <point x="411" y="167" type="curve" smooth="yes"/>
      <point x="390" y="101"/>
      <point x="338" y="50"/>
      <point x="259" y="50" type="curve" smooth="yes"/>
      <point x="180" y="50"/>
      <point x="131" y="92"/>
      <point x="129" y="163" type="curve"/>
    </contour>
    <contour>
      <point x="76" y="159" type="line"/>
      <point x="76" y="157"/>
      <point x="76" y="154"/>
      <point x="77" y="151" type="curve"/>
      <point x="129" y="163" type="line"/>
      <point x="129" y="165"/>
      <point x="129" y="165"/>
      <point x="129" y="167" type="curve"/>
    </contour>
    <contour>
      <point x="76" y="159" type="curve"/>
      <point x="129" y="167" type="line"/>
      <point x="129" y="167"/>
      <point x="76" y="159"/>
    </contour>
  </outline>
</glyph>
<glyph name="colon" format="2">
  <advance width="206"/>
  <unicode hex="003A"/>
  <outline>
    <contour>
      <point x="50" y="422" type="line"/>
      <point x="50" y="443"/>
      <point x="82" y="475"/>
      <point x="104" y="475" type="qcurve"/>
      <point x="126" y="475"/>
      <point x="158" y="443"/>
      <point x="158" y="421" type="qcurve"/>
      <point x="158" y="399"/>
      <point x="126" y="368"/>
      <point x="104" y="368" type="qcurve"/>
      <point x="82" y="368"/>
      <point x="50" y="399"/>
      <point x="50" y="421" type="qcurve"/>
    </contour>
    <contour>
      <point x="50" y="52" type="line"/>
      <point x="50" y="73"/>
      <point x="82" y="105"/>
      <point x="104" y="105" type="qcurve"/>
      <point x="126" y="105"/>
      <point x="158" y="73"/>
      <point x="158" y="51" type="qcurve"/>
      <point x="158" y="29"/>
      <point x="126" y="-2"/>
      <point x="104" y="-2" type="qcurve"/>
      <point x="82" y="-2"/>
      <point x="50" y="29"/>
      <point x="50" y="51" type="qcurve"/>
    </contour>
  </outline>
</glyph>
<glyph name="semicolon" format="2">
  <advance width="205"/>
  <unicode hex="003B"/>
  <outline>
    <contour>
      <point x="9" y="-108" type="line"/>
      <point x="75" y="104" type="line"/>
      <point x="131" y="104" type="line"/>
      <point x="65" y="-108" type="line"/>
      <point x="9" y="-108" type="line"/>
    </contour>
    <contour>
      <point x="49" y="422" type="line"/>
      <point x="49" y="443"/>
      <point x="81" y="475"/>
      <point x="103" y="475" type="qcurve"/>
      <point x="125" y="475"/>
      <point x="157" y="443"/>
      <point x="157" y="421" type="qcurve"/>
      <point x="157" y="399"/>
      <point x="125" y="368"/>
      <point x="103" y="368" type="qcurve"/>
      <point x="81" y="368"/>
      <point x="49" y="399"/>
      <point x="49" y="421" type="qcurve"/>
    </contour>
  </outline>
</glyph>
<glyph name="less" format="2">
  <advance width="600"/>
  <unicode hex="003C"/>
  <outline>
    <contour>
      <point x="554" y="71" type="line"/>
      <point x="108" y="277" type="line"/>
      <point x="554" y="483" type="line"/>
      <point x="554" y="538" type="line"/>
      <point x="46" y="304" type="line"/>
      <point x="46" y="250" type="line"/>
      <point x="554" y="16" type="line"/>
    </contour>
  </outline>
</glyph>
<glyph name="A" format="2">
  <advance width="769"/>
  <unicode hex="0041"/>
  <outline>
    <contour>
      <point x="254" y="0" type="line"/>
      <point x="254" y="50" type="line"/>
      <point x="174" y="50" type="line"/>
      <point x="238" y="237" type="line"/>
      <point x="529" y="237" type="line"/>
      <point x="593" y="50" type="line"/>
      <point x="513" y="50" type="line"/>
      <point x="513" y="0" type="line"/>
      <point x="749" y="0" type="line"/>
      <point x="749" y="50" type="line"/>
      <point x="661" y="50" type="line"/>
      <point x="443" y="702" type="line"/>
      <point x="508" y="702" type="line"/>
      <point x="508" y="750" type="line"/>
      <point x="262" y="750" type="line"/>
      <point x="262" y="702" type="line"/>
      <point x="327" y="702" type="line"/>
      <point x="108" y="50" type="line"/>
      <point x="20" y="50" type="line"/>
      <point x="20" y="0" type="line"/>
    </contour>
    <contour>
      <point x="255" y="285" type="line"/>
      <point x="383" y="698" type="line"/>
      <point x="385" y="698" type="line"/>
      <point x="512" y="285" type="line"/>
    </contour>
  </outline>
</glyph>
<glyph name="N" format="2">
  <advance width="786"/>
  <unicode hex="004E"/>
  <outline>
    <contour>
      <point x="187" y="686" type="line"/>
      <point x="187" y="50" type="line"/>
      <point x="275" y="50" type="line"/>
      <point x="275" y="0" type="line"/>
      <point x="39" y="0" type="line"/>
      <point x="39" y="50" type="line"/>
      <point x="127" y="50" type="line"/>
      <point x="127" y="700" type="line"/>
      <point x="39" y="700" type="line"/>
      <point x="39" y="750" type="line"/>
      <point x="216" y="750" type="line"/>
      <point x="597" y="99" type="line"/>
      <point x="599" y="99" type="line"/>
      <point x="599" y="700" type="line"/>
      <point x="511" y="700" type="line"/>
      <point x="511" y="750" type="line"/>
      <point x="747" y="750" type="line"/>
      <point x="747" y="700" type="line"/>
      <point x="659" y="700" type="line"/>
      <point x="659" y="0" type="line"/>
      <point x="597" y="0" type="line"/>
      <point x="189" y="686" type="line"/>
      <point x="187" y="686" type="line"/>
    </contour>
  </outline>
</glyph>
<glyph name="O" format="2">
  <advance width="866"/>
  <unicode hex="004F"/>
  <guideline x="2910" y="-155" angle="0" identifier="1XSFbINiZp"/>
  <outline>
    <contour>
      <point x="51.559231912216035" y="342" type="line"/>
      <point x="42.559231912216035" y="445"/>
      <point x="72.55923191221603" y="536"/>
      <point x="140.55923191221603" y="617" type="curve"/>
      <point x="207.55923191221603" y="698"/>
      <point x="294.55923191221603" y="743"/>
      <point x="399.55923191221603" y="752" type="curve"/>
      <point x="505.55923191221603" y="761"/>
      <point x="598.559231912216" y="732"/>
      <point x="679.559231912216" y="664" type="curve"/>
      <point x="761.559231912216" y="597"/>
      <point x="805.559231912216" y="511"/>
      <point x="814.559231912216" y="408" type="curve"/>
      <point x="823.559231912216" y="304"/>
      <point x="794.559231912216" y="212"/>
      <point x="727.559231912216" y="132" type="curve"/>
      <point x="658.559231912216" y="51"/>
      <point x="572.559231912216" y="6"/>
      <point x="466.55923191221603" y="-3" type="curve"/>
      <point x="360.55923191221603" y="-12"/>
      <point x="267.55923191221603" y="17"/>
      <point x="186.55923191221603" y="84" type="curve"/>
      <point x="105.55923191221603" y="152"/>
      <point x="60.559231912216035" y="237"/>
      <point x="51.559231912216035" y="341" type="curve"/>
    </contour>
    <contour>
      <point x="113.55923191221603" y="347" type="line"/>
      <point x="122.55923191221603" y="256"/>
      <point x="159.55923191221603" y="181"/>
      <point x="226.55923191221603" y="124" type="curve"/>
      <point x="293.55923191221603" y="66"/>
      <point x="371.55923191221603" y="41"/>
      <point x="461.55923191221603" y="49" type="curve"/>
      <point x="551.559231912216" y="57"/>
      <point x="625.559231912216" y="96"/>
      <point x="680.559231912216" y="164" type="curve"/>
      <point x="736.559231912216" y="231"/>
      <point x="760.559231912216" y="311"/>
      <point x="753.559231912216" y="402" type="curve"/>
      <point x="745.559231912216" y="493"/>
      <point x="707.559231912216" y="568"/>
      <point x="640.559231912216" y="625" type="curve"/>
      <point x="573.559231912216" y="682"/>
      <point x="494.55923191221603" y="708"/>
      <point x="403.55923191221603" y="700" type="curve"/>
      <point x="314.55923191221603" y="693"/>
      <point x="240.55923191221603" y="654"/>
      <point x="185.55923191221603" y="586" type="curve"/>
      <point x="130.55923191221603" y="516"/>
      <point x="105.55923191221603" y="437"/>
      <point x="113.55923191221603" y="346" type="curve"/>
    </contour>
  </outline>
</glyph>
<glyph name="V" format="2">
  <advance width="695"/>
  <unicode hex="0056"/>
  <outline>
    <contour>
      <point x="20" y="702" type="line"/>
      <point x="20" y="750" type="line"/>
      <point x="232" y="750" type="line"/>
      <point x="232" y="702" type="line"/>
      <point x="155" y="702" type="line"/>
      <point x="345" y="105" type="line"/>
      <point x="347" y="105" type="line"/>
      <point x="541" y="702" type="line"/>
      <point x="464" y="702" type="line"/>
      <point x="464" y="750" type="line"/>
      <point x="675" y="750" type="line"/>
      <point x="675" y="702" type="line"/>
      <point x="598" y="702" type="line"/>
      <point x="369" y="0" type="line"/>
      <point x="322" y="0" type="line"/>
      <point x="97" y="702" type="line"/>
      <point x="20" y="702" type="line"/>
    </contour>
  </outline>
</glyph>
<glyph name="a" format="2">
  <advance width="640"/>
  <unicode hex="0061"/>
  <guideline x="457" y="242" angle="0" identifier="R9v2bfRP2L"/>
  <guideline x="266" y="423" angle="0" identifier="1I7KxtEumO"/>
  <guideline x="322" y="53" angle="0" identifier="8lDfjuSzkt"/>
  <outline>
    <contour>
      <point x="610.0140845070423" y="472" type="line"/>
      <point x="487.01408450704224" y="472" type="line"/>
      <point x="486.0280745070422" y="374" type="line"/>
      <point x="475.01408450704224" y="389"/>
      <point x="463.01408450704224" y="404" type="qcurve" smooth="yes"/>
      <point x="402.01408450704224" y="473"/>
      <point x="189.42734730069088" y="472.6841303937865"/>
      <point x="49.014084507042256" y="334"/>
      <point x="49.014084507042256" y="234" type="qcurve" smooth="yes"/>
      <point x="48.014084507042256" y="133"/>
      <point x="188.01408450704224" y="0"/>
      <point x="296.01408450704224" y="0" type="qcurve" smooth="yes"/>
      <point x="402.01408450704224" y="0"/>
      <point x="463.01408450704224" y="67" type="qcurve" smooth="yes"/>
      <point x="475.01408450704224" y="80"/>
      <point x="484.0280745070422" y="95" type="qcurve"/>
      <point x="485.01408450704224" y="0" type="line"/>
      <point x="610.0280745070423" y="0" type="line"/>
      <point x="610.0280745070423" y="50" type="line"/>
      <point x="544.0280745070423" y="50" type="line"/>
      <point x="544.0280745070423" y="425" type="line"/>
      <point x="609.0280745070423" y="425" type="line"/>
    </contour>
    <contour>
      <point x="484.0280745070422" y="236" type="qcurve" smooth="yes"/>
      <point x="484.0280745070422" y="235" type="line" smooth="yes"/>
      <point x="484.0280745070422" y="149"/>
      <point x="381.01408450704224" y="54"/>
      <point x="298.01408450704224" y="54" type="qcurve" smooth="yes"/>
      <point x="213.01408450704224" y="54"/>
      <point x="108.82226401248737" y="148.27354827089306"/>
      <point x="108.82226401248737" y="319.43495969769583"/>
      <point x="212.01408450704224" y="418"/>
      <point x="296.01408450704224" y="418" type="qcurve" smooth="yes"/>
      <point x="381.01408450704224" y="418"/>
      <point x="484.0280745070422" y="321"/>
    </contour>
    <contour>
      <point x="484.0280745070422" y="95" type="line"/>
      <point x="486.0280745070422" y="374" type="line"/>
    </contour>
  </outline>
</glyph>
<glyph name="b" format="2">
  <advance width="630"/>
  <unicode hex="0062"/>
  <outline>
    <contour>
      <point x="16" y="750" type="line"/>
      <point x="16" y="700" type="line"/>
      <point x="89" y="700" type="line"/>
      <point x="89" y="50" type="line"/>
      <point x="15" y="50" type="line"/>
      <point x="15" y="0" type="line"/>
      <point x="141" y="0" type="line"/>
      <point x="141" y="98" type="line"/>
      <point x="142" y="97"/>
      <point x="143" y="95" type="qcurve"/>
      <point x="152" y="80"/>
      <point x="164" y="67" type="qcurve" smooth="yes"/>
      <point x="225" y="0"/>
      <point x="332" y="0" type="qcurve" smooth="yes"/>
      <point x="440" y="0"/>
      <point x="581" y="134"/>
      <point x="580" y="235" type="qcurve" smooth="yes"/>
      <point x="580" y="336"/>
      <point x="439" y="475"/>
      <point x="225" y="475"/>
      <point x="164" y="406" type="qcurve" smooth="yes"/>
      <point x="152" y="391"/>
      <point x="141" y="374" type="qcurve"/>
      <point x="141" y="750" type="line"/>
    </contour>
    <contour>
      <point x="143" y="236" type="line" smooth="yes"/>
      <point x="143" y="321"/>
      <point x="246" y="420"/>
      <point x="332" y="420" type="qcurve" smooth="yes"/>
      <point x="416" y="420"/>
      <point x="520" y="321"/>
      <point x="520" y="149"/>
      <point x="415" y="54"/>
      <point x="330" y="54" type="qcurve" smooth="yes"/>
      <point x="246" y="54"/>
      <point x="143" y="149"/>
      <point x="143" y="235" type="qcurve" smooth="yes"/>
    </contour>
  </outline>
</glyph>
<glyph name="d" format="2">
  <advance width="640"/>
  <unicode hex="0064"/>
  <outline>
    <contour>
      <point x="414.01398601398597" y="750" type="line"/>
      <point x="414.01398601398597" y="700" type="line"/>
      <point x="487.01398601398597" y="700" type="line"/>
      <point x="487.01398601398597" y="374" type="line"/>
      <point x="476.01398601398597" y="391"/>
      <point x="464.01398601398597" y="406" type="qcurve" smooth="yes"/>
      <point x="403.01398601398597" y="475"/>
      <point x="189.01398601398603" y="475"/>
      <point x="48.01398601398601" y="336"/>
      <point x="48.01398601398601" y="235" type="qcurve" smooth="yes"/>
      <point x="47.01398601398601" y="134"/>
      <point x="188.01398601398603" y="0"/>
      <point x="296.01398601398597" y="0" type="qcurve" smooth="yes"/>
      <point x="403.01398601398597" y="0"/>
      <point x="464.01398601398597" y="67" type="qcurve" smooth="yes"/>
      <point x="476.01398601398597" y="80"/>
      <point x="485.01398601398597" y="95" type="qcurve"/>
      <point x="486.01398601398597" y="97"/>
      <point x="487.01398601398597" y="98" type="qcurve"/>
      <point x="487.01398601398597" y="0" type="line"/>
      <point x="613.013986013986" y="0" type="line"/>
      <point x="613.013986013986" y="50" type="line"/>
      <point x="539.013986013986" y="50" type="line"/>
      <point x="539.013986013986" y="750" type="line"/>
    </contour>
    <contour>
      <point x="485.01398601398597" y="224" type="line" smooth="yes"/>
      <point x="485.01398601398597" y="218"/>
      <point x="484.01398601398597" y="213" type="qcurve"/>
      <point x="477.01398601398597" y="137"/>
      <point x="377.01398601398597" y="54"/>
      <point x="298.01398601398597" y="54" type="qcurve" smooth="yes"/>
      <point x="213.01398601398603" y="54"/>
      <point x="108.01398601398603" y="149"/>
      <point x="108.01398601398603" y="321"/>
      <point x="212.01398601398603" y="420"/>
      <point x="296.01398601398597" y="420" type="qcurve" smooth="yes"/>
      <point x="376.01398601398597" y="420"/>
      <point x="477.01398601398597" y="333"/>
      <point x="484.01398601398597" y="258" type="qcurve"/>
      <point x="485.01398601398597" y="252"/>
      <point x="485.01398601398597" y="247" type="qcurve" smooth="yes"/>
    </contour>
  </outline>
</glyph>
<glyph name="g" format="2">
  <advance width="643"/>
  <unicode hex="0067"/>
  <guideline x="457" y="242" angle="0"/>
  <guideline x="266" y="423" angle="0"/>
  <guideline x="322" y="53" angle="0"/>
  <outline>
    <contour>
      <point x="487.013986013986" y="427" type="line"/>
      <point x="487.013986013986" y="427"/>
      <point x="487.013986013986" y="427"/>
      <point x="487.013986013986" y="427" type="curve" smooth="yes"/>
      <point x="487.013986013986" y="427"/>
      <point x="487.013986013986" y="406"/>
      <point x="487.013986013986" y="374" type="curve"/>
      <point x="476.013986013986" y="391"/>
      <point x="464.013986013986" y="406" type="qcurve" smooth="yes"/>
      <point x="403.013986013986" y="475"/>
      <point x="189.01398601398603" y="475"/>
      <point x="48.01398601398601" y="336"/>
      <point x="48.01398601398601" y="235" type="qcurve" smooth="yes"/>
      <point x="47.01398601398601" y="134"/>
      <point x="188.01398601398603" y="0"/>
      <point x="296.013986013986" y="0" type="qcurve" smooth="yes"/>
      <point x="403.013986013986" y="0"/>
      <point x="464.013986013986" y="67" type="qcurve" smooth="yes"/>
      <point x="476.013986013986" y="80"/>
      <point x="485.013986013986" y="95" type="qcurve"/>
      <point x="486.013986013986" y="218" type="line"/>
      <point x="485.013986013986" y="131"/>
      <point x="485.013986013986" y="50"/>
      <point x="485.013986013986" y="50" type="curve"/>
      <point x="485.013986013986" y="1" type="line" smooth="yes"/>
      <point x="482.013986013986" y="-100"/>
      <point x="394.013986013986" y="-163"/>
      <point x="299.013986013986" y="-161" type="curve" smooth="yes"/>
      <point x="297.013986013986" y="-161" type="line" smooth="yes"/>
      <point x="220.01398601398603" y="-159"/>
      <point x="137.01398601398603" y="-128"/>
      <point x="110.01398601398601" y="-51" type="curve"/>
      <point x="61.01398601398601" y="-74" type="line"/>
      <point x="94.01398601398601" y="-172"/>
      <point x="191.01398601398603" y="-213"/>
      <point x="297.013986013986" y="-213" type="curve" smooth="yes"/>
      <point x="299.013986013986" y="-213" type="line" smooth="yes"/>
      <point x="437.013986013986" y="-213"/>
      <point x="534.013986013986" y="-136"/>
      <point x="535.013986013986" y="-1" type="curve"/>
      <point x="535.013986013986" y="-1" type="line"/>
      <point x="535.013986013986" y="15" type="line"/>
      <point x="537.013986013986" y="427" type="line"/>
      <point x="610.013986013986" y="427" type="line"/>
      <point x="610.013986013986" y="477" type="line"/>
      <point x="487.013986013986" y="477" type="line"/>
    </contour>
    <contour>
      <point x="485.013986013986" y="236" type="qcurve" smooth="yes"/>
      <point x="485.013986013986" y="235" type="line" smooth="yes"/>
      <point x="485.013986013986" y="149"/>
      <point x="382.013986013986" y="54"/>
      <point x="298.013986013986" y="54" type="qcurve" smooth="yes"/>
      <point x="213.01398601398603" y="54"/>
      <point x="108.01398601398601" y="149"/>
      <point x="108.01398601398601" y="321"/>
      <point x="212.01398601398603" y="420"/>
      <point x="296.013986013986" y="420" type="qcurve" smooth="yes"/>
      <point x="382.013986013986" y="420"/>
      <point x="485.013986013986" y="321"/>
    </contour>
  </outline>
</glyph>
<glyph name="j" format="2">
  <advance width="271"/>
  <unicode hex="006A"/>
  <outline>
    <contour>
      <point x="-53" y="-136" type="line"/>
      <point x="-43" y="-172"/>
      <point x="-11" y="-200"/>
      <point x="45" y="-200" type="curve" smooth="yes"/>
      <point x="103" y="-200"/>
      <point x="153" y="-170"/>
      <point x="176" y="-102" type="curve" smooth="yes"/>
      <point x="187" y="-68"/>
      <point x="194" y="-26"/>
      <point x="194" y="30" type="curve" smooth="yes"/>
      <point x="194" y="475" type="line"/>
      <point x="46" y="475" type="line"/>
      <point x="46" y="424" type="line"/>
      <point x="134" y="424" type="line"/>
      <point x="134" y="21" type="line" smooth="yes"/>
      <point x="134" y="-23"/>
      <point x="129" y="-58"/>
      <point x="122" y="-83" type="curve" smooth="yes"/>
      <point x="109" y="-131"/>
      <point x="81" y="-149"/>
      <point x="49" y="-149" type="curve" smooth="yes"/>
      <point x="42" y="-149"/>
      <point x="11" y="-151"/>
      <point x="-9" y="-116" type="curve"/>
    </contour>
    <contour>
      <point x="153" y="614" type="curve" smooth="yes"/>
      <point x="180" y="614"/>
      <point x="202" y="637"/>
      <point x="202" y="666" type="curve" smooth="yes"/>
      <point x="202" y="694"/>
      <point x="180" y="718"/>
      <point x="153" y="718" type="curve" smooth="yes"/>
      <point x="124" y="718"/>
      <point x="102" y="694"/>
      <point x="102" y="666" type="curve" smooth="yes"/>
      <point x="102" y="637"/>
      <point x="124" y="614"/>
    </contour>
  </outline>
</glyph>
<glyph name="o" format="2">
  <advance width="584"/>
  <unicode hex="006F"/>
  <guideline x="457" y="242" angle="0" identifier="JTXbQIpMH4"/>
  <guideline x="266" y="423" angle="0" identifier="BlFTm68d4j"/>
  <guideline x="322" y="53" angle="0" identifier="0IgaSHhR3p"/>
  <outline>
    <contour>
      <point x="292" y="-6" type="curve" smooth="yes"/>
      <point x="432" y="-6"/>
      <point x="536" y="102"/>
      <point x="536" y="239" type="curve" smooth="yes"/>
      <point x="536" y="374"/>
      <point x="432" y="481"/>
      <point x="292" y="481" type="curve" smooth="yes"/>
      <point x="152" y="481"/>
      <point x="48" y="374"/>
      <point x="48" y="239" type="curve" smooth="yes"/>
      <point x="48" y="102"/>
      <point x="152" y="-6"/>
    </contour>
    <contour>
      <point x="292" y="46" type="curve" smooth="yes"/>
      <point x="188" y="46"/>
      <point x="107" y="125"/>
      <point x="107" y="239" type="curve" smooth="yes"/>
      <point x="107" y="350"/>
      <point x="188" y="429"/>
      <point x="292" y="429" type="curve" smooth="yes"/>
      <point x="395" y="429"/>
      <point x="477" y="350"/>
      <point x="477" y="239" type="curve" smooth="yes"/>
      <point x="477" y="125"/>
      <point x="395" y="46"/>
    </contour>
  </outline>
</glyph>
<glyph name="q" format="2">
  <advance width="618"/>
  <unicode hex="0071"/>
  <outline>
    <contour>
      <point x="613.013986013986" y="-165" type="line"/>
      <point x="544.013986013986" y="-165" type="line"/>
      <point x="544.013986013986" y="425" type="line"/>
      <point x="610.013986013986" y="425" type="line"/>
      <point x="610.013986013986" y="477" type="line"/>
      <point x="487.01398601398597" y="477" type="line"/>
      <point x="487.01398601398597" y="374" type="line"/>
      <point x="476.01398601398597" y="391"/>
      <point x="464.01398601398597" y="406" type="qcurve" smooth="yes"/>
      <point x="403.01398601398597" y="475"/>
      <point x="189.01398601398603" y="475"/>
      <point x="48.01398601398601" y="336"/>
      <point x="48.01398601398601" y="235" type="qcurve" smooth="yes"/>
      <point x="47.01398601398601" y="134"/>
      <point x="188.01398601398603" y="0"/>
      <point x="296.01398601398597" y="0" type="qcurve" smooth="yes"/>
      <point x="403.01398601398597" y="0"/>
      <point x="464.01398601398597" y="67" type="qcurve" smooth="yes"/>
      <point x="476.01398601398597" y="80"/>
      <point x="485.01398601398597" y="95" type="qcurve"/>
      <point x="485.01398601398597" y="-165" type="line"/>
      <point x="416.01398601398597" y="-165" type="line"/>
      <point x="416.01398601398597" y="-215" type="line"/>
      <point x="613.013986013986" y="-215" type="line"/>
    </contour>
    <contour>
      <point x="485.01398601398597" y="236" type="qcurve" smooth="yes"/>
      <point x="485.01398601398597" y="235" type="line" smooth="yes"/>
      <point x="485.01398601398597" y="149"/>
      <point x="382.01398601398597" y="54"/>
      <point x="298.01398601398597" y="54" type="qcurve" smooth="yes"/>
      <point x="213.01398601398603" y="54"/>
      <point x="108.01398601398603" y="149"/>
      <point x="108.01398601398603" y="321"/>
      <point x="212.01398601398603" y="420"/>
      <point x="296.01398601398597" y="420" type="qcurve" smooth="yes"/>
      <point x="382.01398601398597" y="420"/>
      <point x="485.01398601398597" y="321"/>
    </contour>
    <contour>
      <point x="488.01398601398597" y="373" type="qcurve"/>
      <point x="487.01398601398597" y="374" type="line"/>
      <point x="487.01398601398597" y="373"/>
    </contour>
  </outline>
</glyph>
<glyph name="braceright" format="2">
  <advance width="317"/>
  <unicode hex="007D"/>
  <outline>
    <contour>
      <point x="55" y="-199" type="line"/>
      <point x="189" y="-196"/>
      <point x="239" y="-132"/>
      <point x="239" y="-43" type="curve" smooth="yes"/>
      <point x="239" y="10"/>
      <point x="221" y="39"/>
      <point x="171" y="91" type="curve" smooth="yes"/>
      <point x="145" y="119"/>
      <point x="142" y="145"/>
      <point x="142" y="176" type="curve" smooth="yes"/>
      <point x="142" y="233"/>
      <point x="194" y="267"/>
      <point x="259" y="267" type="curve" smooth="yes"/>
      <point x="273" y="267" type="line"/>
      <point x="273" y="316" type="line"/>
      <point x="259" y="316" type="line" smooth="yes"/>
      <point x="194" y="316"/>
      <point x="142" y="349"/>
      <point x="142" y="407" type="curve" smooth="yes"/>
      <point x="142" y="437"/>
      <point x="155" y="464"/>
      <point x="181" y="491" type="curve" smooth="yes"/>
      <point x="231" y="543"/>
      <point x="239" y="573"/>
      <point x="239" y="626" type="curve" smooth="yes"/>
      <point x="239" y="715"/>
      <point x="189" y="779"/>
      <point x="55" y="782" type="curve"/>
      <point x="55" y="738" type="line"/>
      <point x="171" y="733"/>
      <point x="185" y="676"/>
      <point x="185" y="626" type="curve" smooth="yes"/>
      <point x="185" y="593"/>
      <point x="176" y="560"/>
      <point x="142" y="522" type="curve" smooth="yes"/>
      <point x="109" y="486"/>
      <point x="88" y="449"/>
      <point x="88" y="408" type="curve" smooth="yes"/>
      <point x="88" y="371"/>
      <point x="101" y="313"/>
      <point x="195" y="291" type="curve"/>
      <point x="101" y="270"/>
      <point x="88" y="212"/>
      <point x="88" y="175" type="curve" smooth="yes"/>
      <point x="88" y="133"/>
      <point x="109" y="96"/>
      <point x="142" y="61" type="curve" smooth="yes"/>
      <point x="176" y="23"/>
      <point x="185" y="-11"/>
      <point x="185" y="-43" type="curve" smooth="yes"/>
      <point x="185" y="-93"/>
      <point x="171" y="-150"/>
      <point x="55" y="-156" type="curve"/>
    </contour>
  </outline>
</glyph>
<glyph name="asciitilde" format="2">
  <advance width="600"/>
  <unicode hex="007E"/>
  <outline>
    <contour>
      <point x="495" y="380" type="line"/>
      <point x="472" y="345"/>
      <point x="447" y="308"/>
      <point x="407" y="308" type="curve" smooth="yes"/>
      <point x="381" y="308"/>
      <point x="346" y="325"/>
      <point x="309" y="342" type="curve" smooth="yes"/>
      <point x="272" y="359"/>
      <point x="232" y="376"/>
      <point x="194" y="376" type="curve" smooth="yes"/>
      <point x="127" y="376"/>
      <point x="91" y="332"/>
      <point x="69" y="290" type="curve"/>
      <point x="105" y="254" type="line"/>
      <point x="121" y="289"/>
      <point x="145" y="326"/>
      <point x="189" y="326" type="curve" smooth="yes"/>
      <point x="234" y="326"/>
      <point x="268" y="309"/>
      <point x="301" y="292" type="curve" smooth="yes"/>
      <point x="335" y="275"/>
      <point x="367" y="258"/>
      <point x="406" y="258" type="curve" smooth="yes"/>
      <point x="468" y="258"/>
      <point x="501" y="302"/>
      <point x="531" y="344" type="curve"/>
    </contour>
  </outline>
</glyph>
<glyph name="guillemetright" format="2">
  <advance width="417"/>
  <unicode hex="00BB"/>
  <outline>
    <contour>
      <point x="96" y="500" type="line"/>
      <point x="33" y="500" type="line"/>
      <point x="156" y="346" type="line"/>
      <point x="33" y="192" type="line"/>
      <point x="96" y="192" type="line"/>
      <point x="220" y="346" type="line"/>
    </contour>
    <contour>
      <point x="241" y="500" type="line"/>
      <point x="178" y="500" type="line"/>
      <point x="301" y="346" type="line"/>
      <point x="178" y="192" type="line"/>
      <point x="241" y="192" type="line"/>
      <point x="365" y="346" type="line"/>
    </contour>
  </outline>
</glyph>
<glyph name="multiply" format="2">
  <advance width="600"/>
  <unicode hex="00D7"/>
  <outline>
    <contour>
      <point x="300" y="196" type="line"/>
      <point x="495" y="1" type="line"/>
      <point x="527" y="32" type="line"/>
      <point x="331" y="227" type="line"/>
      <point x="527" y="423" type="line"/>
      <point x="495" y="454" type="line"/>
      <point x="300" y="258" type="line"/>
      <point x="105" y="454" type="line"/>
      <point x="73" y="423" type="line"/>
      <point x="269" y="227" type="line"/>
      <point x="73" y="32" type="line"/>
      <point x="106" y="0" type="line"/>
    </contour>
  </outline>
</glyph>
<glyph name="Oslash" format="2">
  <advance width="812"/>
  <unicode hex="00D8"/>
  <outline>
    <contour>
      <point x="27" y="375" type="curve"/>
      <point x="27" y="374" type="line"/>
      <point x="35" y="281"/>
      <point x="72" y="203"/>
      <point x="138" y="140" type="curve"/>
      <point x="131" y="132" type="line"/>
      <point x="34" y="20" type="line"/>
      <point x="75" y="-16" type="line"/>
      <point x="171" y="96" type="line"/>
      <point x="179" y="105" type="line"/>
      <point x="255" y="48"/>
      <point x="342" y="24"/>
      <point x="439" y="32" type="curve"/>
      <point x="544" y="41"/>
      <point x="630" y="86"/>
      <point x="698" y="166" type="curve"/>
      <point x="765" y="246"/>
      <point x="794" y="337"/>
      <point x="785" y="440" type="curve"/>
      <point x="777" y="535"/>
      <point x="739" y="614"/>
      <point x="670" y="678" type="curve"/>
      <point x="678" y="688" type="line"/>
      <point x="770" y="793" type="line"/>
      <point x="728" y="829" type="line"/>
      <point x="637" y="723" type="line"/>
      <point x="628" y="713" type="line"/>
      <point x="553" y="767"/>
      <point x="468" y="790"/>
      <point x="373" y="782" type="curve"/>
      <point x="268" y="773"/>
      <point x="182" y="728"/>
      <point x="115" y="648" type="curve"/>
      <point x="48" y="568"/>
      <point x="18" y="477"/>
    </contour>
    <contour>
      <point x="89" y="380" type="curve"/>
      <point x="89" y="379" type="line"/>
      <point x="81" y="469"/>
      <point x="105" y="548"/>
      <point x="160" y="617" type="curve"/>
      <point x="215" y="685"/>
      <point x="288" y="723"/>
      <point x="377" y="730" type="curve"/>
      <point x="458" y="737"/>
      <point x="530" y="717"/>
      <point x="593" y="671" type="curve"/>
      <point x="175" y="183" type="line"/>
      <point x="124" y="236"/>
      <point x="96" y="302"/>
    </contour>
    <contour>
      <point x="724" y="434" type="curve"/>
      <point x="731" y="344"/>
      <point x="707" y="265"/>
      <point x="652" y="198" type="curve"/>
      <point x="597" y="130"/>
      <point x="524" y="92"/>
      <point x="434" y="84" type="curve"/>
      <point x="351" y="77"/>
      <point x="278" y="98"/>
      <point x="215" y="147" type="curve"/>
      <point x="634" y="636" type="line"/>
      <point x="687" y="582"/>
      <point x="717" y="515"/>
    </contour>
  </outline>
</glyph>
<glyph name="Hbar" format="2">
  <advance width="749"/>
  <unicode hex="0126"/>
  <outline>
    <contour>
      <point x="187" y="375" type="line"/>
      <point x="187" y="700" type="line"/>
      <point x="262" y="700" type="line"/>
      <point x="262" y="750" type="line"/>
      <point x="52" y="750" type="line"/>
      <point x="52" y="700" type="line"/>
      <point x="127" y="700" type="line"/>
      <point x="127" y="50" type="line"/>
      <point x="52" y="50" type="line"/>
      <point x="52" y="0" type="line"/>
      <point x="262" y="0" type="line"/>
      <point x="262" y="50" type="line"/>
      <point x="187" y="50" type="line"/>
      <point x="187" y="323" type="line"/>
      <point x="562" y="323" type="line"/>
      <point x="562" y="50" type="line"/>
      <point x="487" y="50" type="line"/>
      <point x="487" y="0" type="line"/>
      <point x="697" y="0" type="line"/>
      <point x="697" y="50" type="line"/>
      <point x="622" y="50" type="line"/>
      <point x="622" y="700" type="line"/>
      <point x="697" y="700" type="line"/>
      <point x="697" y="750" type="line"/>
      <point x="487" y="750" type="line"/>
      <point x="487" y="700" type="line"/>
      <point x="562" y="700" type="line"/>
      <point x="562" y="375" type="line"/>
    </contour>
    <contour>
      <point x="54" y="517" type="line"/>
      <point x="122" y="517" type="line"/>
      <point x="628" y="517" type="line"/>
      <point x="696" y="517" type="line"/>
      <point x="696" y="565" type="line"/>
      <point x="628" y="565" type="line"/>
      <point x="571" y="565" type="line"/>
      <point x="179" y="565" type="line"/>
      <point x="122" y="565" type="line"/>
      <point x="54" y="565" type="line"/>
    </contour>
    <contour>
      <point x="179" y="517" type="line"/>
      <point x="571" y="517" type="line"/>
    </contour>
  </outline>
</glyph>
<glyph name="Lslash" format="2">
  <advance width="578"/>
  <unicode hex="0141"/>
  <outline>
    <contour>
      <point x="395" y="469" type="line"/>
      <point x="367" y="515" type="line"/>
      <point x="3" y="299" type="line"/>
      <point x="32" y="251" type="line"/>
    </contour>
    <component base="L"/>
  </outline>
</glyph>
<glyph name="caron" format="2">
  <advance width="278"/>
  <unicode hex="02C7"/>
  <outline>
    <contour>
      <point x="140" y="597" type="line"/>
      <point x="58" y="699" type="line"/>
      <point x="-6" y="699" type="line"/>
      <point x="116" y="560" type="line"/>
      <point x="164" y="560" type="line"/>
      <point x="287" y="699" type="line"/>
      <point x="222" y="699" type="line"/>
    </contour>
  </outline>
</glyph>
<glyph name="endash" format="2">
  <advance width="511"/>
  <unicode hex="2013"/>
  <outline>
    <contour>
      <point x="22" y="257" type="line"/>
      <point x="489" y="257" type="line"/>
      <point x="489" y="207" type="line"/>
      <point x="22" y="207" type="line"/>
      <point x="22" y="257" type="line"/>
    </contour>
  </outline>
</glyph>
<glyph name="guilsinglright" format="2">
  <advance width="280"/>
  <unicode hex="203A"/>
  <outline>
    <contour>
      <point x="87" y="184" type="line"/>
      <point x="247" y="342" type="line"/>
      <point x="87" y="500" type="line"/>
      <point x="54" y="469" type="line"/>
      <point x="179" y="342" type="line"/>
      <point x="54" y="215" type="line"/>
    </contour>
  </outline>
</glyph>
<glyph name="ff" format="2">
  <advance width="358"/>
  <unicode hex="FB00"/>
  <outline>
    <contour>
      <point x="164" y="425" type="line"/>
      <point x="84" y="425" type="line"/>
      <point x="84" y="475" type="line"/>
      <point x="164" y="475" type="line"/>
      <point x="362" y="475" type="line"/>
      <point x="362" y="425" type="line"/>
    </contour>
    <component base="f" xOffset="148"/>
    <component base="f" xOffset="-140"/>
  </outline>
</glyph>
<glyph name="a.alt" format="2">
  <advance width="485"/>
  <outline>
    <contour>
      <point x="210" y="37" type="curve" smooth="yes"/>
      <point x="144" y="37"/>
      <point x="110" y="72"/>
      <point x="110" y="117" type="curve" smooth="yes"/>
      <point x="110" y="162"/>
      <point x="146" y="198"/>
      <point x="220" y="198" type="curve" smooth="yes"/>
      <point x="265" y="198"/>
      <point x="302" y="188"/>
      <point x="336" y="177" type="curve"/>
      <point x="336" y="106" type="line"/>
      <point x="304" y="69"/>
      <point x="267" y="37"/>
    </contour>
    <contour>
      <point x="104" y="392" type="line"/>
      <point x="144" y="360" type="line"/>
    </contour>
    <contour>
      <point x="200" y="-8" type="curve" smooth="yes"/>
      <point x="257" y="-8"/>
      <point x="303" y="21"/>
      <point x="338" y="57" type="curve"/>
      <point x="338" y="0" type="line"/>
      <point x="455" y="0" type="line"/>
      <point x="455" y="46" type="line"/>
      <point x="385" y="46" type="line"/>
      <point x="385" y="299" type="line" smooth="yes"/>
      <point x="385" y="331"/>
      <point x="375" y="360"/>
      <point x="354" y="382" type="curve" smooth="yes"/>
      <point x="327" y="411"/>
      <point x="283" y="428"/>
      <point x="226" y="428" type="curve" smooth="yes"/>
      <point x="172" y="428"/>
      <point x="130" y="413"/>
      <point x="104" y="392" type="curve"/>
      <point x="144" y="360" type="line"/>
      <point x="144" y="360" type="line"/>
      <point x="160" y="371"/>
      <point x="180" y="382"/>
      <point x="220" y="382" type="curve" smooth="yes"/>
      <point x="265" y="382"/>
      <point x="297" y="368"/>
      <point x="316" y="347" type="curve" smooth="yes"/>
      <point x="329" y="332"/>
      <point x="336" y="311"/>
      <point x="336" y="287" type="curve" smooth="yes"/>
      <point x="336" y="217" type="line"/>
      <point x="316" y="226"/>
      <point x="264" y="241"/>
      <point x="218" y="241" type="curve" smooth="yes"/>
      <point x="127" y="241"/>
      <point x="59" y="190"/>
      <point x="59" y="114" type="curve" smooth="yes"/>
      <point x="59" y="44"/>
      <point x="115" y="-8"/>
    </contour>
  </outline>
</glyph>
